# AST/ASF file generated using VICON BodyLanguage
# -----------------------------------------------
:version 1.10
:name VICON
:units
  mass 1.0
  length 0.45
  angle deg
:documentation
   .ast/.asf automatically generated from VICON data using
   VICON BodyBuilder and BodyLanguage model FoxedUp or BRILLIANT.MOD
:root
   order TX TY TZ RX RY RZ
   axis XYZ
   position 0 0 0  
   orientation 0 0 0 
:bonedata
  begin
     id 1 
     name lhipjoint
     direction 0.671379 -0.66392 0.329334 
     length 2.38647 
     axis 0 0 0  XYZ
  end
  begin
     id 2 
     name lfemur
     direction 0.34202 -0.939693 0  
     length 6.48179  
     axis 0 0 20  XYZ
    dof rx ry rz
    limits (-160.0 20.0)
           (-70.0 70.0)
           (-60.0 70.0)
  end
  begin
     id 3 
     name ltibia
     direction 0.34202 -0.939693 0   
     length 6.86524   
     axis 0 0 20   XYZ
    dof rx
    limits (-10.0 170.0)
  end
  begin
     id 4 
     name lfoot
     direction 0.204886 -0.562919 0.800715   
     length 1.73031   
     axis -90 7.62852e-016 20   XYZ
    dof rx rz
    limits (-45.0 90.0)
           (-70.0 20.0)
  end
  begin
     id 5 
     name ltoes
     direction 1.53548e-011 -4.21841e-011 1   
     length 0.828161   
     axis -90 7.62852e-016 20   XYZ
    dof rx
    limits (-90.0 20.0)
  end
  begin
     id 6 
     name rhipjoint
     direction -0.662732 -0.670855 0.332775   
     length 2.3618  
     axis 0 0 0  XYZ 
  end
  begin
     id 7 
     name rfemur
     direction -0.34202 -0.939693 0   
     length 6.3025   
     axis 0 0 -20   XYZ
    dof rx ry rz
    limits (-160.0 20.0)
           (-70.0 70.0)
           (-70.0 60.0)
  end
  begin
     id 8 
     name rtibia
     direction -0.34202 -0.939693 0   
     length 6.8732   
     axis 0 0 -20   XYZ
    dof rx
    limits (-10.0 170.0)
 end
 begin
     id 9 
     name rfoot
     direction -0.173856 -0.477665 0.861168   
     length 1.54784  
     axis -90 -7.62852e-016 -20   XYZ
    dof rx rz
    limits (-45.0 90.0)
           (-20.0 70.0)
  end
  begin
     id 10 
     name rtoes
     direction -1.53562e-011 -4.21802e-011 1   
     length 0.759618   
     axis -90 -7.62852e-016 -20   XYZ
    dof rx
    limits (-90.0 20.0)
  end
  begin
     id 11 
     name lowerback
     direction -0.0278357 0.999497 -0.0151789   
     length 1.97203   
     axis 0 0 0   XYZ
    dof rx ry rz
    limits (-20.0 45.0)
           (-30.0 30.0)
           (-30.0 30.0)
  end
  begin
     id 12 
     name upperback
     direction -0.00360622 0.997542 0.0699804   
     length 1.94709   
     axis 0 0 0   XYZ
    dof rx ry rz
    limits (-20.0 45.0)
           (-30.0 30.0)
           (-30.0 30.0)
  end
  begin
     id 13 
     name thorax
     direction 0.00907706 0.997048 0.0762461   
     length 1.95722   
     axis 0 0 0   XYZ
    dof rx ry rz
    limits (-20.0 45.0)
           (-30.0 30.0)
           (-30.0 30.0)
  end
  begin
     id 14 
     name lowerneck
     direction -0.0481835 0.99872 -0.0153927   
     length 1.63078   
     axis 0 0 0   XYZ
    dof rx ry rz
    limits (-20.0 45.0)
           (-30.0 30.0)
           (-30.0 30.0)
  end
  begin
     id 15 
     name upperneck
     direction 0.0859716 0.979226 -0.183644   
     length 1.62591   
     axis 0 0 0   XYZ
    dof rx ry rz
    limits (-20.0 45.0)
           (-30.0 30.0)
           (-30.0 30.0)
  end
  begin
     id 16
     name head
     direction 0.0324821 0.997629 -0.0606773  
     length 1.64811  
     axis 0 0 0   XYZ
    dof rx ry rz
    limits (-20.0 45.0)
           (-30.0 30.0)
           (-30.0 30.0)
  end
  begin
     id 17 
     name lclavicle
     direction 0.939609 0.311019 0.142835  
     length 3.70647  
     axis 0 0 0   XYZ
    dof ry rz
    limits (-20.0 10.0)
           (0.0 20.0)
  end
  begin
     id 18 
     name lhumerus
     direction 1 -4.48963e-011 -1.59838e-027   
     length 4.59207   
     axis 180 -30 -90   XYZ
    dof rx ry rz
    limits (-60.0 90.0)
           (-90.0 90.0)
           (-90.0 90.0)
  end
  begin
     id 19
     name lradius
     direction 1 -4.48957e-011 -1.3483e-026   
     length 2.98109   
     axis 180 -30 -90   XYZ
    dof rx
    limits (-10.0 170.0)
  end
  begin
     id 20
     name lwrist
     direction 1 -4.48954e-011 -3.11579e-026   
     length 1.49055   
     axis 2.00652e-014 90 90   XYZ
    dof ry
    limits (-180.0 0.0)
 end
  begin
     id 21 
     name lhand
     direction 1 -4.4911e-011 -6.23158e-026   
     length 0.480203   
     axis 3.97628e-014 90 90   XYZ
    dof rx rz
    limits (-90.0 90.0)
           (-45.0 45.0)
  end
  begin
     id 22 
     name lfingers
     direction 1 -4.48893e-011 -1.24632e-025   
     length 0.387152   
     axis 7.95256e-014 90 90   XYZ
    dof rx
    limits (0.0 90.0)
  end
  begin
     id 23
     name lthumb
     direction 0.707107 -6.35013e-011 0.707107   
     length 0.555875   
     axis -90 45 2.85299e-015   XYZ
    dof rx rz
    limits (-45.0 45.0)
           (-45.0 45.0)
  end
  begin
     id 24 
     name rclavicle
     direction -0.950396 0.30392 0.0661859   
     length 3.70894  
     axis 0 0 0   XYZ 
    dof ry rz
    limits (-10.0 20.0)
           (-20.0 0.0)
  end
  begin
     id 25 
     name rhumerus
     direction -1 -4.48957e-011 -2.96677e-027  
     length 4.76508   
     axis 180 30 90   XYZ
    dof rx ry rz
    limits (-90.0 60.0)
           (-90.0 90.0)
           (-90.0 90.0)
  end
  begin
     id 26 
     name rradius
     direction -1 -4.48974e-011 -1.44501e-026   
     length 2.78902   
     axis 180 30 90   XYZ
    dof rx
    limits (-10.0 170.0)
  end
  begin
     id 27 
     name rwrist
     direction -1 -4.48978e-011 -3.11579e-026   
     length 1.39451   
     axis 2.00652e-014 -90 -90   XYZ
    dof ry
    limits (-180.0 0.0)
  end
  begin
     id 28
     name rhand
     direction -1 -4.48956e-011 -6.23158e-026   
     length 0.721303   
     axis 3.97628e-014 -90 -90   XYZ
    dof rx rz
    limits (-90.0 90.0)
           (-45.0 45.0)
  end
  begin
     id 29
     name rfingers
     direction -1 -4.4899e-011 -1.24632e-025   
     length 0.581533   
     axis 7.95256e-014 -90 -90   XYZ
    dof rx
    limits (0.0 90.0)
  end
  begin
     id 30
     name rthumb
     direction -0.707107 -6.34911e-011 0.707107   
     length 0.834968   
     axis -90 -45 -2.85299e-015   XYZ
    dof rx rz
    limits (-45.0 45.0)
           (-45.0 45.0)
  end
:hierarchy
  begin
    root lhipjoint rhipjoint lowerback
    lhipjoint lfemur
    lfemur ltibia
    ltibia lfoot
    lfoot ltoes
    rhipjoint rfemur
    rfemur rtibia
    rtibia rfoot
    rfoot rtoes
    lowerback upperback
    upperback thorax
    thorax lowerneck lclavicle rclavicle
    lowerneck upperneck
    upperneck head
    lclavicle lhumerus
    lhumerus lradius
    lradius lwrist
    lwrist lhand lthumb
    lhand lfingers
    rclavicle rhumerus
    rhumerus rradius
    rradius rwrist
    rwrist rhand rthumb
    rhand rfingers
  end

#!OML:ASF I:\salsa\salsa 7_09\Patient 1\Session 1\dancerfemale.ASF
:FULLY-SPECIFIED
:DEGREES
1071
root 1.40005 15.6175 -2.84868 -284.801 -86.0227 -68.7359
lowerback 5.80659 2.72981 7.02488
upperback -12.3291 3.89015 -3.07566
thorax -16.4983 0.44717 -8.15803
lowerneck 0.0786809 -1.00372 -2.86834
upperneck 13.7499 -2.04246 4.34884
head 4.63796 -1.07452 1.90315
rclavicle -1.74931e-014 2.38542e-014
rhumerus 69.2584 -13.4224 -58.6365
rradius 129.194
rwrist -50.1095
rhand -1.04818 410.995
rfingers 7.12502
rthumb 24.586 22.5541
lclavicle -1.74931e-014 2.38542e-014
lhumerus -58.1352 35.4713 10.5747
lradius 59.7919
lwrist -17.4061
lhand -42.7326 31.2564
lfingers 7.12502
lthumb -15.6008 60.6473
rfemur -30.8645 4.62882 30.8104
rtibia 33.9526
rfoot -9.56235 -2.69226
rtoes -2.72406
lfemur -23.8167 8.66722 -16.4196
ltibia 79.5451
lfoot 6.38135 6.40052
ltoes 25.374
1072
root 1.22061 15.6119 -2.87553 -277.827 -85.1119 -75.9357
lowerback 6.0202 2.10929 6.46388
upperback -11.9032 3.15825 -1.83411
thorax -16.3172 0.328804 -6.26995
lowerneck -0.479054 -0.297632 -2.02329
upperneck 13.3578 -0.921184 3.1146
head 4.52687 -0.516906 1.36761
rclavicle -2.76311e-014 0
rhumerus 68.1492 -12.2931 -58.6832
rradius 131.252
rwrist -48.365
rhand -2.22318 412.93
rfingers 7.12502
rthumb 23.4593 24.3403
lclavicle -2.76311e-014 0
lhumerus -62.3511 33.4337 6.41873
lradius 56.9829
lwrist -17.1066
lhand -42.5737 31.3956
lfingers 7.12502
lthumb -15.4478 60.7984
rfemur -29.4208 4.68349 32.2446
rtibia 33.1905
rfoot -10.9975 -3.60453
rtoes 4.63409
lfemur -27.8101 8.67398 -15.0233
ltibia 83.8243
lfoot 6.35704 5.46883
ltoes 24.6683
1073
root 1.0555 15.5966 -2.90481 -274.765 -84.0915 -79.365
lowerback 5.81894 1.37746 5.5278
upperback -11.0427 2.23163 -0.308385
thorax -15.3211 0.229145 -3.81057
lowerneck -1.29741 0.48701 -1.2792
upperneck 12.6674 0.332272 1.71681
head 4.39101 0.0966708 0.810466
rclavicle -2.18663e-015 -3.97569e-015
rhumerus 67.4522 -10.9811 -58.7324
rradius 133.081
rwrist -46.2057
rhand -2.66352 415.128
rfingers 7.12502
rthumb 23.0369 26.4848
lclavicle -2.18663e-015 -3.97569e-015
lhumerus -66.4172 31.2696 3.40687
lradius 53.8513
lwrist -17.3498
lhand -42.37 31.0313
lfingers 7.12502
lthumb -15.2516 60.449
rfemur -27.7531 4.49013 33.7199
rtibia 32.3366
rfoot -11.5656 -2.97001
rtoes -4.13304
lfemur -31.5727 8.03612 -13.5608
ltibia 87.2407
lfoot 6.54316 4.84529
ltoes 24.593
1074
root 0.89888 15.5787 -2.93099 -273.573 -83.1107 -81.1777
lowerback 6.24359 0.803221 4.65249
upperback -10.4079 1.52715 0.955752
thorax -14.9341 0.135023 -1.78758
lowerneck -1.6035 1.11007 -0.455814
upperneck 12.1332 1.27401 0.683239
head 4.2507 0.563585 0.356077
rclavicle -2.20651e-014 -1.03368e-014
rhumerus 65.6751 -9.86216 -58.5414
rradius 134.522
rwrist -43.0998
rhand -3.38718 418.067
rfingers 7.12502
rthumb 22.3423 29.3388
lclavicle -2.20651e-014 -1.03368e-014
lhumerus -68.9374 28.1125 1.96208
lradius 50.2311
lwrist -17.9991
lhand -42.4713 30.7535
lfingers 7.12502
lthumb -15.3491 60.1638
rfemur -25.8622 4.04199 35.1218
rtibia 31.4318
rfoot -12.0587 -2.83877
rtoes -5.60547
lfemur -34.8833 7.09855 -12.1305
ltibia 89.7531
lfoot 6.31242 4.53943
ltoes 24.5344
1075
root 0.738133 15.5696 -2.956 -274.985 -82.3066 -80.706
lowerback 6.50214 0.183245 3.20168
upperback -9.41399 0.683304 2.39708
thorax -13.9776 0.0419449 0.757209
lowerneck -2.11724 1.73968 0.184773
upperneck 11.5213 2.24146 -0.500247
head 4.14994 1.0287 -0.108525
rclavicle -3.37934e-015 8.15017e-015
rhumerus 64.2506 -8.77106 -58.1247
rradius 135.603
rwrist -39.4024
rhand -4.7848 420.87
rfingers 7.12502
rthumb 21.0002 31.987
lclavicle -3.37934e-015 8.15017e-015
lhumerus -71.0797 25.7087 1.2101
lradius 46.2793
lwrist -19.1179
lhand -42.5327 31.1507
lfingers 7.12502
lthumb -15.4083 60.5564
rfemur -23.674 3.22377 36.2491
rtibia 30.4966
rfoot -12.3776 -2.44441
rtoes -5.95486
lfemur -37.4937 6.14063 -10.873
ltibia 91.283
lfoot 6.00423 4.56103
ltoes 23.3372
1076
root 0.57786 15.562 -2.97564 -278.378 -81.4172 -78.261
lowerback 6.76812 -0.406404 1.82537
upperback -8.42653 -0.134959 3.81617
thorax -12.9854 -0.103373 3.21031
lowerneck -2.70879 2.27917 0.535113
upperneck 10.9863 3.07734 -1.58889
head 4.10852 1.41686 -0.491269
rclavicle -1.65612e-014 4.00054e-014
rhumerus 62.7217 -7.89771 -57.4624
rradius 136.544
rwrist -36.207
rhand -6.214 423.099
rfingers 7.12502
rthumb 19.6266 34.0699
lclavicle -1.65612e-014 4.00054e-014
lhumerus -72.5664 23.9327 0.927716
lradius 42.3678
lwrist -19.8878
lhand -42.3008 32.1911
lfingers 7.12502
lthumb -15.1849 61.6139
rfemur -21.5063 2.19319 37.283
rtibia 29.6085
rfoot -12.7125 -2.13237
rtoes -3.7235
lfemur -39.8249 4.96022 -9.61332
ltibia 91.8955
lfoot 4.94766 4.9855
ltoes 22.7928
1077
root 0.427777 15.5543 -2.98692 -282.455 -80.2192 -74.8997
lowerback 7.1257 -0.859919 1.20551
upperback -7.70947 -0.720835 4.92443
thorax -12.3409 -0.267816 4.86484
lowerneck -3.32561 2.57991 0.569207
upperneck 10.6907 3.54809 -2.15063
head 4.14603 1.62957 -0.65629
rclavicle -8.15017e-015 1.68967e-014
rhumerus 60.5763 -7.45883 -56.7421
rradius 137.425
rwrist -33.9758
rhand -7.11414 425.276
rfingers 7.12502
rthumb 18.761 36.161
lclavicle -8.15017e-015 1.68967e-014
lhumerus -73.7331 23.6712 -0.529868
lradius 39.5542
lwrist -20.9459
lhand -41.6505 33.123
lfingers 7.12502
lthumb -14.5585 62.5921
rfemur -19.731 1.06052 38.4702
rtibia 28.8306
rfoot -13.0367 -1.86705
rtoes -4.3108
lfemur -42.2948 3.49729 -8.16209
ltibia 91.648
lfoot 3.22699 5.84093
ltoes 20.9534
1078
root 0.281302 15.548 -2.99875 -286.859 -79.0297 -71.2195
lowerback 7.66067 -1.19592 0.815097
upperback -7.16122 -1.14498 5.76689
thorax -11.9955 -0.40021 6.09078
lowerneck -3.75329 2.70496 0.410218
upperneck 10.4877 3.76366 -2.43869
head 4.16561 1.71866 -0.709159
rclavicle -3.23025e-015 3.85642e-014
rhumerus 57.9506 -7.24987 -56.059
rradius 138.232
rwrist -32.3461
rhand -7.56056 427.37
rfingers 7.12502
rthumb 18.3316 38.2137
lclavicle -3.23025e-015 3.85642e-014
lhumerus -74.2239 24.0534 -2.1721
lradius 37.5481
lwrist -20.8412
lhand -41.2142 34.4289
lfingers 7.12502
lthumb -14.1381 63.9278
rfemur -18.0781 -0.175595 39.5215
rtibia 28.1263
rfoot -14.3137 -1.88331
rtoes -2.53078
lfemur -44.4954 1.90172 -6.86323
ltibia 90.5005
lfoot 1.59493 6.68088
ltoes 20.0249
1079
root 0.136733 15.5404 -3.00932 -291.51 -78.1431 -67.4048
lowerback 8.35769 -1.4215 0.148538
upperback -6.64734 -1.46782 6.46324
thorax -11.7806 -0.47051 7.31726
lowerneck -3.98237 2.74238 -0.219677
upperneck 10.1569 3.85651 -2.36136
head 4.07601 1.7488 -0.565703
rclavicle 3.10104e-014 -3.02153e-014
rhumerus 55.0535 -7.18047 -55.3217
rradius 139.056
rwrist -30.8257
rhand -7.96378 428.934
rfingers 7.12502
rthumb 17.9437 39.7416
lclavicle 3.10104e-014 -3.02153e-014
lhumerus -74.7315 25.3293 -4.04562
lradius 36.8899
lwrist -20.3611
lhand -40.754 36.3382
lfingers 7.12502
lthumb -13.6945 65.8676
rfemur -16.3893 -1.47845 40.1204
rtibia 27.4739
rfoot -14.7857 -1.57034
rtoes -2.5555
lfemur -46.1609 0.216729 -6.07823
ltibia 88.4539
lfoot -0.113287 7.03606
ltoes 17.7755
1080
root -0.00056262 15.5336 -3.00459 -296.164 -77.495 -63.2847
lowerback 8.87135 -1.53925 -0.493353
upperback -6.2947 -1.66988 6.93266
thorax -11.6453 -0.497606 8.2652
lowerneck -4.558 2.49754 -0.733534
upperneck 10.2419 3.61011 -2.65132
head 4.2137 1.58763 -0.576741
rclavicle 1.54058e-014 -1.51076e-014
rhumerus 51.7736 -7.50064 -54.5231
rradius 139.824
rwrist -29.1778
rhand -8.89968 429.85
rfingers 7.12502
rthumb 17.043 40.5774
lclavicle 1.54058e-014 -1.51076e-014
lhumerus -75.041 27.2881 -5.79352
lradius 37.349
lwrist -20.2106
lhand -40.2955 37.6214
lfingers 7.12502
lthumb -13.2526 67.1801
rfemur -15.0215 -2.96662 40.2845
rtibia 26.8226
rfoot -15.1637 -1.24316
rtoes -1.58362
lfemur -47.7233 -1.53395 -5.80119
ltibia 85.5908
lfoot -1.49188 7.99976
ltoes 17.9555
1081
root -0.136224 15.5354 -2.98832 -300.483 -76.9372 -59.2099
lowerback 9.11691 -1.30284 -0.51182
upperback -6.19127 -1.34845 6.74664
thorax -11.7246 -0.342355 8.013
lowerneck -4.56244 1.87404 -1.02822
upperneck 10.0654 2.76026 -2.30319
head 4.12863 1.17873 -0.451538
rclavicle 3.72224e-014 -5.80451e-014
rhumerus 47.0907 -9.10215 -53.491
rradius 140.502
rwrist -27.6226
rhand -10.3726 430.542
rfingers 7.12502
rthumb 15.6248 41.1531
lclavicle 3.72224e-014 -5.80451e-014
lhumerus -73.5268 29.9933 -6.86127
lradius 38.1537
lwrist -21.0772
lhand -40.0458 37.3157
lfingers 7.12502
lthumb -13.012 66.8899
rfemur -13.8799 -4.32579 40.2035
rtibia 26.0814
rfoot -15.6737 -1.08846
rtoes -0.92987
lfemur -49.0995 -3.22174 -5.7616
ltibia 82.0292
lfoot -2.75688 7.37036
ltoes 13.424
